# Created by FreeCAD <http://www.freecadweb.org>
v 625.000000 0.000000 625.000000
v -625.000000 0.000000 625.000000
v -625.000000 -200.000000 625.000000
v 625.000000 -200.000000 625.000000
v 625.000000 -200.000000 -625.000000
v 625.000000 -0.000000 -625.000000
v -625.000000 -0.000000 -625.000000
v -625.000000 -200.000000 -625.000000
v -375.000000 0.000000 375.000000
v 375.000000 0.000000 375.000000
v -375.000000 -200.000000 375.000000
v 375.000000 -200.000000 375.000000
v 375.000000 -0.000000 -375.000000
v 375.000000 -200.000000 -375.000000
v -375.000000 -0.000000 -375.000000
v -375.000000 -200.000000 -375.000000
v -375.000000 -200.000000 375.000000
v -625.000000 -200.000000 625.000000
v -375.000000 -200.000000 -375.000000
v 375.000000 -200.000000 -375.000000
v 375.000000 -200.000000 375.000000
v 625.000000 -200.000000 625.000000
vn 0.000000 0.000000 1.000000
vn 0.000000 0.000000 1.000000
vn 1.000000 0.000000 0.000000
vn 1.000000 0.000000 -0.000000
vn 0.000000 0.000000 -1.000000
vn 0.000000 0.000000 -1.000000
vn -1.000000 0.000000 0.000000
vn -1.000000 -0.000000 0.000000
vn 0.000000 0.000000 -1.000000
vn 0.000000 0.000000 -1.000000
vn -1.000000 -0.000000 0.000000
vn -1.000000 0.000000 0.000000
vn 0.000000 0.000000 1.000000
vn 0.000000 0.000000 1.000000
vn 1.000000 0.000000 -0.000000
vn 1.000000 0.000000 0.000000
vn 0.000000 1.000000 -0.000000
vn 0.000000 1.000000 -0.000000
vn 0.000000 1.000000 -0.000000
vn 0.000000 1.000000 -0.000000
vn 0.000000 1.000000 -0.000000
vn 0.000000 1.000000 -0.000000
vn 0.000000 1.000000 -0.000000
vn 0.000000 1.000000 -0.000000
vn 0.000000 -1.000000 0.000000
vn -0.000000 -1.000000 0.000000
vn 0.000000 -1.000000 0.000000
vn 0.000000 -1.000000 0.000000
vn 0.000000 -1.000000 0.000000
vn 0.000000 -1.000000 0.000000
vn 0.000000 -1.000000 0.000000
vn 0.000000 -1.000000 0.000000
f 1//1 2//1 3//1
f 1//2 3//2 4//2
f 5//3 1//3 4//3
f 6//4 1//4 5//4
f 7//5 6//5 5//5
f 7//6 5//6 8//6
f 2//7 7//7 8//7
f 2//8 8//8 3//8
f 9//9 10//9 11//9
f 11//10 10//10 12//10
f 10//11 13//11 12//11
f 12//12 13//12 14//12
f 13//13 15//13 14//13
f 14//14 15//14 16//14
f 15//15 9//15 16//15
f 16//16 9//16 11//16
f 9//17 7//17 2//17
f 9//18 15//18 7//18
f 13//19 6//19 7//19
f 13//20 7//20 15//20
f 1//21 13//21 10//21
f 1//22 10//22 9//22
f 1//23 9//23 2//23
f 1//24 6//24 13//24
f 8//25 17//25 18//25
f 19//26 17//26 8//26
f 5//27 20//27 8//27
f 8//28 20//28 19//28
f 5//29 21//29 20//29
f 21//30 22//30 17//30
f 17//31 22//31 18//31
f 5//32 22//32 21//32
